<?xml version="1.0" encoding="UTF-8" standalone="no"?>
<svg width="125px" height="38px" viewBox="0 0 125 38" version="1.1" xmlns="http://www.w3.org/2000/svg" xmlns:xlink="http://www.w3.org/1999/xlink">
    <defs></defs>
    <g id="Page-1" stroke="none" stroke-width="1" fill="none" fill-rule="evenodd">
        <g id="Graphics" transform="translate(-188.000000, -454.000000)">
            <g id="supporters-logo-black-4" transform="translate(188.000000, 454.000000)">
                <path d="M5.22908163,33.0480685 C3.80969388,33.0480685 1.88010204,32.5051584 0.771938776,31.870496 C0.478061224,31.701692 0.329591837,31.4958829 0.410714286,31.2302574 L0.676020408,30.3837029 C0.744387755,30.1672486 0.983673469,30.0825931 1.22704082,30.1571102 C1.27602041,30.1738385 1.2994898,30.1784008 1.3244898,30.1870184 C2.44591837,30.6914027 4.01632653,31.1750033 5.22908163,31.1750033 C6.88673469,31.1750033 7.75306122,30.7451361 7.75306122,29.3810174 C7.75306122,28.6206391 7.29336735,28.1380524 5.84285714,27.278318 L3.26887755,25.7585752 C1.71581633,24.822803 0.67244898,23.7364759 0.67244898,22.1412022 C0.67244898,19.5082656 2.65714286,18.7757678 5.28265306,18.7757678 C6.70867347,18.7757678 8.10867347,19.2142527 9.1744898,19.787071 C9.47244898,19.9416812 9.56020408,20.1586425 9.46938776,20.4212265 L9.19897959,21.2110061 C9.09897959,21.5014706 8.88928571,21.5623008 8.65102041,21.4806869 C8.6255102,21.4720693 8.60204082,21.4654793 8.57704082,21.4568617 C7.75816327,21.098977 6.70867347,20.6746859 5.28265306,20.6746859 C3.85408163,20.6746859 2.9122449,20.8500798 2.9122449,22.1412022 C2.9122449,22.8995528 3.49795918,23.3811257 4.66836735,24.0639454 L7.19183673,25.5573284 C9.30714286,26.7987727 9.99285714,27.8850999 9.99285714,29.3810174 C9.99285714,31.9612344 8.08367347,33.0480685 5.22908163,33.0480685" id="Fill-1" fill="#1B1B1E"></path>
                <path d="M108.482143,33.0480685 C107.062245,33.0480685 105.132143,32.5051584 104.022959,31.870496 C103.730612,31.701692 103.579082,31.4958829 103.663776,31.2302574 L103.928571,30.3837029 C103.995918,30.1672486 104.235204,30.0825931 104.479592,30.1571102 C104.528061,30.1738385 104.551531,30.1784008 104.576531,30.1870184 C105.697959,30.6914027 107.265306,31.1750033 108.482143,31.1750033 C110.138265,31.1750033 111.003571,30.7451361 111.003571,29.3810174 C111.003571,28.6206391 110.545408,28.1380524 109.094898,27.278318 L106.520408,25.7585752 C104.967347,24.822803 103.92398,23.7364759 103.92398,22.1412022 C103.92398,19.5082656 105.910204,18.7757678 108.533673,18.7757678 C109.960204,18.7757678 111.358163,19.2142527 112.427041,19.787071 C112.723469,19.9416812 112.811735,20.1586425 112.720408,20.4212265 L112.451531,21.2110061 C112.352041,21.5014706 112.143367,21.5623008 111.901531,21.4806869 C111.877041,21.4720693 111.853571,21.4654793 111.829082,21.4568617 C111.010204,21.098977 109.960204,20.6746859 108.533673,20.6746859 C107.108163,20.6746859 106.165306,20.8500798 106.165306,22.1412022 C106.165306,22.8995528 106.75102,23.3811257 107.921429,24.0639454 L110.445918,25.5573284 C112.556633,26.7987727 113.245918,27.8850999 113.245918,29.3810174 C113.245918,31.9612344 111.335714,33.0480685 108.482143,33.0480685" id="Fill-2" fill="#1B1B1E"></path>
                <path d="M17.7372449,33.0480685 L17.5066327,33.0480685 C15.7755102,33.0480685 12.2596939,32.0854296 12.2596939,27.1003894 L12.2596939,19.4590945 C12.2596939,19.1813029 12.4377551,18.9531894 12.7193878,18.9531894 L14.0433673,18.9531894 C14.3229592,18.9531894 14.5020408,19.1813029 14.5020408,19.4590945 L14.5020408,27.1003894 C14.5020408,30.1383542 15.8,31.0994724 17.5066327,31.0994724 L17.7372449,31.0994724 C19.4433673,31.0994724 20.7418367,30.1383542 20.7418367,27.1003894 L20.7418367,19.4590945 C20.7418367,19.1813029 20.9204082,18.9531894 21.2,18.9531894 L22.5255102,18.9531894 C22.805102,18.9531894 22.9836735,19.1813029 22.9836735,19.4590945 L22.9836735,27.1003894 C22.9836735,32.0854296 19.4673469,33.0480685 17.7372449,33.0480685" id="Fill-3" fill="#1B1B1E"></path>
                <path d="M31.0061224,33.0480685 C30.2158163,33.0480685 29.0188776,32.9471916 28.025,32.7692631 L28.025,37.349782 C28.025,37.6032414 27.8214286,37.830848 27.5413265,37.830848 L26.2423469,37.830848 C25.9882653,37.830848 25.7841837,37.6265597 25.7841837,37.349782 L25.7841837,19.9396536 C25.7841837,19.612184 25.8602041,19.4590945 26.3193878,19.3572038 C27.6704082,19.0287204 29.4520408,18.7757678 31.0061224,18.7757678 C34.8,18.7757678 36.5581633,21.2312828 36.5581633,25.0265844 L36.5581633,26.84693 C36.5581633,30.8201601 34.7244898,33.0480685 31.0061224,33.0480685 L31.0061224,33.0480685 Z M34.3183673,25.0265844 C34.3183673,22.3688088 33.5265306,20.6488331 31.0061224,20.6488331 C29.9357143,20.6488331 28.7382653,20.7755628 28.025,20.9033063 L28.025,30.9225577 C28.8668367,31.0736195 30.1908163,31.1750033 31.0061224,31.1750033 C33.5010204,31.1750033 34.3183673,29.5559044 34.3183673,26.84693 L34.3183673,25.0265844 L34.3183673,25.0265844 Z" id="Fill-4" fill="#1B1B1E"></path>
                <path d="M44.3515306,33.0480685 C43.5607143,33.0480685 42.3653061,32.9471916 41.369898,32.7692631 L41.369898,37.349782 C41.369898,37.6032414 41.1683673,37.830848 40.8877551,37.830848 L39.5877551,37.830848 C39.3352041,37.830848 39.130102,37.6265597 39.130102,37.349782 L39.130102,19.9396536 C39.130102,19.612184 39.2071429,19.4590945 39.6647959,19.3572038 C41.0147959,19.0287204 42.7979592,18.7757678 44.3515306,18.7757678 C48.1464286,18.7757678 49.9030612,21.2312828 49.9030612,25.0265844 L49.9030612,26.84693 C49.9030612,30.8201601 48.0693878,33.0480685 44.3515306,33.0480685 L44.3515306,33.0480685 Z M47.6622449,25.0265844 C47.6622449,22.3688088 46.8719388,20.6488331 44.3515306,20.6488331 C43.2816327,20.6488331 42.0836735,20.7755628 41.369898,20.9033063 L41.369898,30.9225577 C42.2107143,31.0736195 43.5367347,31.1750033 44.3515306,31.1750033 C46.8459184,31.1750033 47.6622449,29.5559044 47.6622449,26.84693 L47.6622449,25.0265844 L47.6622449,25.0265844 Z" id="Fill-5" fill="#1B1B1E"></path>
                <path d="M57.8066327,33.0480685 C54.0627551,33.0480685 52.152551,30.5915397 52.152551,26.8737967 L52.152551,24.9495327 C52.152551,21.2312828 54.0627551,18.7757678 57.8066327,18.7757678 C61.55,18.7757678 63.4857143,21.2312828 63.4857143,24.9495327 L63.4857143,26.8737967 C63.4857143,30.5915397 61.55,33.0480685 57.8066327,33.0480685 L57.8066327,33.0480685 Z M61.2459184,24.9495327 C61.2459184,22.3688088 60.1994898,20.7268986 57.8066327,20.7268986 C55.4372449,20.7268986 54.3943878,22.3434628 54.3943878,24.9495327 L54.3943878,26.8737967 C54.3943878,29.4540137 55.4117347,31.0994724 57.8066327,31.0994724 C60.1744898,31.0994724 61.2459184,29.4783458 61.2459184,26.8737967 L61.2459184,24.9495327 L61.2459184,24.9495327 Z" id="Fill-6" fill="#1B1B1E"></path>
                <path d="M71.5168367,20.7268986 C69.7846939,20.7268986 69.3158163,20.7755628 68.3469388,20.9788372 L68.3469388,32.3647419 C68.3469388,32.6166805 68.1688776,32.8691261 67.8897959,32.8691261 L66.5642857,32.8691261 C66.3107143,32.8691261 66.1066327,32.6425334 66.1066327,32.3647419 L66.1066327,20.0653694 C66.1066327,19.7885917 66.2857143,19.612184 66.5642857,19.4859612 C68.0153061,18.8518057 69.4045918,18.7757678 71.5168367,18.7757678 C71.8479592,18.7757678 72.0540816,18.8011138 72.0540816,19.1564639 L72.0540816,20.3188289 C72.0540816,20.5986481 72.0020408,20.7268986 71.5168367,20.7268986" id="Fill-7" fill="#1B1B1E"></path>
                <path d="M80.9433673,32.4068161 C80.5255102,32.657741 79.2841837,33.0480685 78.2341837,33.0480685 C75.8423469,33.0480685 74.4668367,32.2623443 74.4668367,29.5290377 L74.4668367,16.6203488 C74.4668367,16.3663825 74.694898,16.1894678 74.9734694,16.1392828 L76.2234694,15.9375291 L76.2739796,15.9375291 C76.5290816,15.9375291 76.7056122,16.1661495 76.7056122,16.4175813 L76.7056122,18.9531894 L80.1535714,18.9531894 C80.4326531,18.9531894 80.6377551,19.1306111 80.6377551,19.4084026 L80.6377551,20.2691508 C80.6377551,20.5210895 80.4326531,20.7268986 80.1535714,20.7268986 L76.7056122,20.7268986 L76.7056122,29.5290377 C76.7056122,30.9996094 77.2806122,31.251548 78.5908163,31.251548 C79.3142857,31.251548 80.3,30.8916356 80.3,30.8916356 C80.6295918,30.7567952 80.8321429,30.7846758 80.9270408,31.020393 L81.2535714,31.8182833 C81.3397959,32.0281477 81.2811224,32.2167216 80.9433673,32.4068161" id="Fill-8" fill="#1B1B1E"></path>
                <path d="M93.0556122,26.6208442 L84.5244898,26.6208442 L84.5244898,26.9255024 C84.5244898,29.833696 85.9,31.1750033 88.2418367,31.1750033 C89.7188776,31.1750033 91.1566327,30.8384092 92.2392857,30.3613985 C92.2897959,30.3497394 92.3137755,30.3406148 92.3632653,30.3294626 C92.5602041,30.2757292 92.7836735,30.3213519 92.8494898,30.5641661 L93.0770408,31.3960199 C93.1642857,31.713858 93.1127551,31.9095287 92.7392857,32.088978 C91.4107143,32.7358065 89.9479592,33.0480685 88.2418367,33.0480685 C85.3132653,33.0480685 82.2816327,31.6570831 82.2816327,26.7987727 L82.2816327,25.0265844 C82.2816327,21.4325296 84.2933673,18.7757678 87.9362245,18.7757678 C91.6545918,18.7757678 93.5397959,21.4076906 93.5397959,25.0007315 L93.5397959,26.066275 C93.5397959,26.3942515 93.3617347,26.6208442 93.0556122,26.6208442 L93.0556122,26.6208442 Z M91.2734694,24.7984709 C91.2734694,22.092538 90.1770408,20.7268986 87.9362245,20.7268986 C85.7464286,20.7268986 84.5244898,22.192401 84.5244898,24.7984709 L84.5244898,24.9252006 L91.2734694,24.9252006 L91.2734694,24.7984709 L91.2734694,24.7984709 Z" id="Fill-9" fill="#1B1B1E"></path>
                <path d="M101.573469,20.7268986 C99.8413265,20.7268986 99.372449,20.7755628 98.4040816,20.9788372 L98.4040816,32.3647419 C98.4040816,32.6166805 98.2265306,32.8691261 97.9459184,32.8691261 L96.6219388,32.8691261 C96.3658163,32.8691261 96.1632653,32.6425334 96.1632653,32.3647419 L96.1632653,20.0653694 C96.1632653,19.7885917 96.3423469,19.612184 96.6219388,19.4859612 C98.0734694,18.8518057 99.4607143,18.7757678 101.573469,18.7757678 C101.904082,18.7757678 102.109184,18.8011138 102.109184,19.1564639 L102.109184,20.3188289 C102.109184,20.5986481 102.057653,20.7268986 101.573469,20.7268986" id="Fill-10" fill="#1B1B1E"></path>
                <path d="M116.544223,12.4047049 C116.065389,12.6775621 115.671642,12.4513472 115.671642,11.9027177 L115.671642,8.59811423 C115.671642,8.04773567 116.065389,7.82268681 116.544223,8.09729306 L119.454197,9.75484205 C119.932444,10.0271162 119.932444,10.4742988 119.454197,10.747739 L116.544223,12.4047049" id="Fill-14" fill="#F66838"></path>
                <path d="M111.891729,13.9146341 L108.770969,13.9146341 C107.57694,13.9146341 106.600006,12.9439911 106.600006,11.7576497 L106.600006,8.65698448 C106.600006,7.47064302 107.57694,6.5 108.770969,6.5 L111.891729,6.5 C113.085759,6.5 114.062693,7.47064302 114.062693,8.65698448 L114.062693,11.7576497 C114.062693,12.9439911 113.085759,13.9146341 111.891729,13.9146341 Z" id="Imported-Layers" fill="#F66838"></path>
                <path d="M123.765752,18.504173 L121.063094,20.0645529 C120.029034,20.6615678 118.697663,20.3094331 118.104493,19.2820312 L116.55416,16.5967764 C115.960989,15.5693746 116.321717,14.2403063 117.355777,13.6432914 L120.058435,12.0829115 C121.092495,11.4858965 122.423865,11.8380313 123.017036,12.8654331 L124.567369,15.5506879 C125.16054,16.5780898 124.799812,17.9071581 123.765752,18.504173 Z" id="Imported-Layers" fill="#F66838"></path>
                <path d="M120.145773,8.39819154 L117.443115,6.83781162 C116.409055,6.2407967 116.048327,4.91172843 116.641498,3.88432659 L118.191831,1.19907176 C118.785001,0.17166992 120.116372,-0.180464833 121.150432,0.416550093 L123.85309,1.97693001 C124.88715,2.57394494 125.247878,3.9030132 124.654707,4.93041505 L123.104374,7.61566987 C122.511204,8.64307171 121.179833,8.99520647 120.145773,8.39819154 Z" id="Imported-Layers" fill="#F66838"></path>
            </g>
        </g>
    </g>
</svg>